<?xml version="1.0" ?><svg id="Layer_1" style="enable-background:new 0 0 100 100;" version="1.1" fill="#333333" viewBox="0 0 100 100" xml:space="preserve" xmlns="http://www.w3.org/2000/svg" xmlns:xlink="http://www.w3.org/1999/xlink"><path d="M84.4,6.7C82.9,4.9,80.5,4,77,4H28.7C22,4,19,8.7,19,13.1v76.3c0,4.3,2.5,5.8,3.6,6.2c0.6,0.2,1.5,0.4,2.4,0.4  c1.5,0,3.3-0.5,4.6-1.9c7.8-9,22.7-26.1,23.2-26.6c0.1-0.1,0.2-0.2,0.3-0.3c0.1,0,0.1,0,0.2,0H68c6.9,0,8.1-5,8.8-7.6l0-0.1  c0.3-1.2,2.2-10.9,4.3-21.2c1.7-8.4,3.4-17.2,4.3-21.6C86.4,12.1,86.1,8.8,84.4,6.7z M75.2,18.2l-2,10.4c-0.4,1.7-2.3,3.1-4,3.1  H49.6c-1.7,0-2.6,0.9-2.6,2.3v2.7c0,1.6,1.1,2.6,2.6,2.6h16.6c1,0,2.1,0.5,2.8,1.4c0.7,0.9,1,2,0.8,3c-0.2,0.8-0.7,3.3-1.1,5.6  c-0.4,2.2-0.8,4.2-0.9,4.6c-0.3,1.3-1.7,3.1-3.9,3.1H50.9c-2,0-2.5,0.1-3.9,1.9c-1.6,1.9-15.3,18.3-15.9,19  c-0.3,0.3-0.6,0.5-0.9,0.5c-0.1,0-0.3,0-0.4-0.1c-0.4-0.2-0.7-0.6-0.7-1.1V17.8c0-1.9,1.6-3.9,3.9-3.9h38.8c1,0,2,0.5,2.7,1.3  C75.1,16.1,75.4,17.1,75.2,18.2z"/></svg>